<svg width="512" height="512" viewBox="0 0 512 512" fill="none" xmlns="http://www.w3.org/2000/svg">
<path d="M490.5 256C490.5 385.511 385.511 490.5 256 490.5C126.489 490.5 21.5 385.511 21.5 256C21.5 126.489 126.489 21.5 256 21.5C385.511 21.5 490.5 126.489 490.5 256Z" fill="#538271" stroke="#404F49" stroke-width="25"/>
<path d="M341.163 86.9326L349.192 77.352C343.915 72.9296 336.055 73.6073 331.613 78.8679L341.163 86.9326ZM405.32 140.698L414.879 148.753C417.019 146.213 418.061 142.927 417.774 139.618C417.487 136.309 415.895 133.25 413.349 131.117L405.32 140.698ZM216.464 364.795L221.968 376.018L224.328 374.861L226.023 372.85L216.464 364.795ZM122.488 410.879L110.506 407.317C109.092 412.075 110.627 417.219 114.417 420.424C118.207 423.63 123.535 424.288 127.992 422.103L122.488 410.879ZM152.307 310.578L142.757 302.513L141.071 304.51L140.326 307.016L152.307 310.578ZM333.135 96.5132L397.291 150.278L413.349 131.117L349.192 77.352L333.135 96.5132ZM395.762 132.643L206.906 356.74L226.023 372.85L414.879 148.753L395.762 132.643ZM210.961 353.572L116.984 399.656L127.992 422.103L221.968 376.018L210.961 353.572ZM134.47 414.442L164.289 314.14L140.326 307.016L110.506 407.317L134.47 414.442ZM161.858 318.643L350.714 94.9974L331.613 78.8679L142.757 302.513L161.858 318.643Z" fill="#4D655C"/>
<path d="M305.565 128.109L334.417 93.8444C339.758 86.9428 342.796 86.3472 348.298 91.5023L373.636 112.838L337.871 155.312L305.565 128.109Z" fill="#DC6666"/>
<path d="M370.177 182.515L399.03 148.25C404.921 141.812 404.991 138.717 398.974 134.173L373.636 112.838L337.871 155.312L370.177 182.515Z" fill="#9A2121"/>
<path d="M305.534 128.083L337.871 155.313L325.344 170.19L293.007 142.961L305.534 128.083Z" fill="#E6E6E6"/>
<path d="M337.871 155.312L370.209 182.541L357.682 197.418L325.344 170.189L337.871 155.312Z" fill="#BBBBBB"/>
<path d="M293.007 142.96L325.344 170.19L184.564 337.379L152.227 310.15L293.007 142.96Z" fill="#E3B55B"/>
<path d="M325.344 170.189L357.682 197.418L216.902 364.608L184.564 337.379L325.344 170.189Z" fill="#C49550"/>
<path d="M136.817 362.553L152.227 310.149L184.564 337.379L152.352 375.634L136.817 362.553Z" fill="#F0D49C"/>
<path d="M167.887 388.715L216.902 364.608L184.564 337.379L152.352 375.634L167.887 388.715Z" fill="#DFBB85"/>
<path d="M126.96 394.207L136.817 362.553L167.887 388.715L138.373 403.817C128.931 406.989 125.383 404.122 126.96 394.207Z" fill="#202020"/>
<path d="M130.072 384.72L136.817 362.553L152.352 375.634L135.649 395.47C135.649 395.47 131.138 399.541 128.919 397.672C126.699 395.804 130.072 384.72 130.072 384.72Z" fill="#474B58"/>
</svg>
